<?xml version="1.0" encoding="utf-8"?>
<!-- Generator: Adobe Illustrator 16.0.0, SVG Export Plug-In . SVG Version: 6.00 Build 0)  -->
<!DOCTYPE svg PUBLIC "-//W3C//DTD SVG 1.1//EN" "http://www.w3.org/Graphics/SVG/1.1/DTD/svg11.dtd">
<svg version="1.1" id="Layer_4" xmlns="http://www.w3.org/2000/svg" xmlns:xlink="http://www.w3.org/1999/xlink" x="0px" y="0px"
	 width="100px" height="100px" viewBox="0 0 100 100" enable-background="new 0 0 100 100" xml:space="preserve">
<path fill="#DDDDDD" d="M21.131,64.048c9.632-9.632,19.264-19.264,28.896-28.896V21.945c0-1.638-0.948-3.128-2.429-3.823
	c-1.481-0.7-3.231-0.477-4.493,0.569l-23.098,19.14H7.705c-2.333,0-4.225,1.892-4.225,4.226v16.833c0,2.332,1.892,4.226,4.225,4.226
	h12.302L21.131,64.048z"/>
<path fill="#DDDDDD" d="M32.556,73.515l10.549,8.741c0.773,0.641,1.73,0.973,2.696,0.973c0.61,0,1.224-0.133,1.797-0.402
	c1.482-0.695,2.429-2.186,2.429-3.823h0.001v-22.96L32.556,73.515z"/>
<path fill="#DDDDDD" d="M86.685,19.344c-0.122,0.149-0.255,0.296-0.399,0.441l-6.232,6.232c4.69,7.244,7.229,15.718,7.229,24.456
	c0,10.586-3.753,20.879-10.568,28.983c-1.409,1.678-1.305,4.157,0.246,5.707l0.556,0.555c0.795,0.795,1.868,1.237,2.987,1.237
	c0.06,0,0.119-0.002,0.177-0.004c1.184-0.05,2.288-0.593,3.053-1.495c8.246-9.77,12.787-22.193,12.785-34.983
	C96.518,39.267,93.053,28.423,86.685,19.344z"/>
<path fill="#DDDDDD" d="M71.9,34.17l-6.929,6.929c1.215,2.937,1.862,6.094,1.862,9.375c0,5.305-1.671,10.363-4.834,14.627
	c-1.248,1.683-1.075,4.025,0.407,5.504l0.565,0.568c0.795,0.796,1.871,1.237,2.988,1.237c0.102,0,0.201-0.004,0.303-0.011
	c1.223-0.088,2.348-0.703,3.082-1.685c4.399-5.887,6.725-12.887,6.725-20.241C76.07,44.661,74.64,39.12,71.9,34.17z"/>
<path fill="#FFFFFF" stroke="#DDDDDD" stroke-width="7" stroke-miterlimit="10" d="M89.953,13.841
	c-1.048-1.049-2.37-1.426-2.951-0.843l-71.161,71.16c-0.582,0.585-0.206,1.904,0.842,2.952l0,0c1.049,1.049,2.37,1.425,2.955,0.845
	l71.158-71.161C91.38,16.211,91.003,14.89,89.953,13.841L89.953,13.841z"/>
</svg>
